# xmcd CD database file
#
# Track frame offsets:
#	150
#	12067
#	26110
#	37930
#	57590
#	75277
#	90732
#	108880
#	124702
#	140787
#
# Disc length: 2070 seconds
#
# Revision: 15
# Processed by: cddbd v1.5.2PL0 Copyright (c) Steve Scherf et al.
# Submitted via: CDex 1.51
#
DISCID=7708140a
DTITLE=Alan Jackson - Everything I Love
DYEAR=1996
DGENRE=Country
TTITLE0=Little Bitty
TTITLE1=Everything I Love
TTITLE2=Buicks To The Moon
TTITLE3=Between The Devil And Me
TTITLE4=There Goes
TTITLE5=A House With No Curtains
TTITLE6=Who's Cheatin' Who
TTITLE7=Walk On The Rocks
TTITLE8=Must've Had A Ball
TTITLE9=Its Time You Learned About Good-Bye
EXTD=YEAR: 1996
EXTT0=
EXTT1=
EXTT2=
EXTT3=
EXTT4=
EXTT5=
EXTT6=
EXTT7=
EXTT8=
EXTT9=
PLAYORDER=
